# xmcd
#
# Track frame offsets: 
#        150
#        22283
#        38480
#        55422
#        70044
#        87206
#        107652
#        126389
#        137533
#        157058
#        178069
#        199678
#        219476
#        233873
#        254576
#
# Disc length: 3719 seconds
#
# Revision: 1
# Processed by: cddbd v1.5.2PL0 Copyright (c) Steve Scherf et al.
# Submitted via: ExactAudioCopy v1.0b1
#
DISCID=da0e850f
DTITLE=陳潔麗 -  國語精華集
DYEAR=2010
DGENRE=Vocal
TTITLE0=唇印
TTITLE1=好想好想
TTITLE2=野百合也有春天
TTITLE3=幾多愁
TTITLE4=風告訴我
TTITLE5=流星下的願
TTITLE6=再見，我的爱人
TTITLE7=音樂女孩
TTITLE8=我祇在乎你
TTITLE9=人面桃花
TTITLE10=女人花
TTITLE11=相見在明天
TTITLE12=偶然的相遇
TTITLE13=你可以知道我爱誰
TTITLE14=醉花蔭
EXTD=
EXTT0=
EXTT1=
EXTT2=
EXTT3=
EXTT4=
EXTT5=
EXTT6=
EXTT7=
EXTT8=
EXTT9=
EXTT10=
EXTT11=
EXTT12=
EXTT13=
EXTT14=
PLAYORDER=
